<svg width="344" height="84" viewBox="0 0 344 84" fill="none" xmlns="http://www.w3.org/2000/svg">
<path d="M341.073 50.2113C339.118 47.0611 336.334 44.7371 332.726 43.2446C329.113 41.7521 324.842 41.0059 319.917 41.0059H310.742C309.892 41.0059 309.19 40.7074 308.638 40.1104C308.085 39.5134 307.809 38.8312 307.809 38.0636C307.809 37.296 308.085 36.6137 308.638 36.0168C309.19 35.4198 309.892 35.1213 310.742 35.1213H338.528V17.7285H305.009C301.014 17.7285 297.364 18.688 294.049 20.6069C290.734 22.5258 288.125 25.0843 286.212 28.2772C284.3 31.4753 283.344 35.036 283.344 38.9537C283.344 43.9855 284.385 48.0952 286.467 51.2934C288.55 54.4915 291.377 56.8369 294.941 58.324C298.512 59.8165 302.459 60.5627 306.794 60.5627H316.735C317.415 60.5627 317.967 60.6907 318.392 60.9465C318.817 61.2024 319.157 61.5648 319.412 62.0339C319.667 62.503 319.795 62.9933 319.795 63.505C319.795 64.0168 319.667 64.5071 319.412 64.9762C319.157 65.4453 318.817 65.8291 318.392 66.1275C318.222 66.2448 318.031 66.3354 317.824 66.4047H262.841C264.069 66.0103 265.243 65.5359 266.348 64.9655C269.923 63.1106 272.665 60.5894 274.572 57.3965C276.479 54.2037 277.436 50.5738 277.436 46.5014V19.3276H259.988V45.4034C259.988 46.4961 259.717 47.5622 259.17 48.5962C258.623 49.6303 257.853 50.4672 256.854 51.1015C255.855 51.7358 254.66 52.0609 253.262 52.0609C251.865 52.0609 250.643 51.7411 249.581 51.1015C248.518 50.4618 247.716 49.6303 247.174 48.5962C246.627 47.5622 246.356 46.5014 246.356 45.4034V19.3276H228.999V46.5014C228.999 50.5738 230.029 54.209 232.091 57.3965C234.152 60.5894 237.026 63.1106 240.724 64.9655C241.866 65.5359 243.067 66.0103 244.326 66.4047H221.189V0H203.832V66.4047H181.513C182.74 66.0103 183.914 65.5359 185.019 64.9655C188.595 63.1106 191.336 60.5894 193.243 57.3965C195.151 54.2037 196.107 50.5738 196.107 46.5014V19.3276H178.66V45.4034C178.66 46.4961 178.389 47.5622 177.841 48.5962C177.294 49.6303 176.524 50.4672 175.525 51.1015C174.526 51.7358 173.331 52.0609 171.934 52.0609C170.536 52.0609 169.314 51.7411 168.252 51.1015C167.189 50.4618 166.387 49.6303 165.845 48.5962C165.298 47.5622 165.027 46.5014 165.027 45.4034V19.3276H147.67V46.5014C147.67 50.5738 148.701 54.209 150.762 57.3965C152.823 60.5894 155.698 63.1106 159.395 64.9655C160.538 65.5359 161.738 66.0103 162.997 66.4047H141.401V52.4287H133.676C131.737 52.4287 130.053 52.0183 128.634 51.1974C127.21 50.3766 126.105 49.2519 125.319 47.8233C124.533 46.3948 124.139 44.8011 124.139 43.0367C124.139 41.2724 124.533 39.6947 125.319 38.2928C126.105 36.8963 127.21 35.7876 128.634 34.9667C130.058 34.1458 131.737 33.7354 133.676 33.7354H141.401V19.3276H132.13C127.221 19.3276 122.859 20.3297 119.044 22.3392C115.23 24.3434 112.228 27.1258 110.045 30.6811C107.861 34.2364 106.772 38.3568 106.772 43.0367C106.772 47.7167 107.861 51.8211 110.045 55.3444C112.228 58.873 115.225 61.6235 119.044 63.5957C122.009 65.1308 125.308 66.0636 128.932 66.4047H85.5471C86.7744 66.0103 87.9485 65.5359 89.0536 64.9655C92.6291 63.1106 95.3705 60.5894 97.2778 57.3965C99.1851 54.2037 100.141 50.5738 100.141 46.5014V19.3276H82.6941V45.4034C82.6941 46.4961 82.4231 47.5622 81.8759 48.5962C81.3287 49.6303 80.5583 50.4672 79.5595 51.1015C78.5607 51.7358 77.3653 52.0609 75.9681 52.0609C74.5708 52.0609 73.3488 51.7411 72.2863 51.1015C71.2237 50.4618 70.4215 49.6303 69.8796 48.5962C69.3324 47.5622 69.0614 46.5014 69.0614 45.4034V19.3276H51.7044V46.5014C51.7044 50.5738 52.7351 54.209 54.7965 57.3965C56.8578 60.5894 59.7321 63.1106 63.4298 64.9655C64.5721 65.5359 65.7728 66.0103 67.0319 66.4047H45.8019V51.1494H36.8019C34.0127 51.1494 31.5582 50.723 29.4384 49.8755C27.3185 49.0227 25.56 47.8553 24.168 46.3628C22.7761 44.8757 21.7294 43.1274 21.0335 41.1178C20.3375 39.1137 19.9868 36.9549 19.9868 34.6415C19.9868 32.3282 20.3375 30.1748 21.0335 28.1652C21.7294 26.1611 22.7761 24.4127 24.168 22.9202C25.56 21.4331 27.3185 20.2604 29.4384 19.4076C31.5582 18.5547 34.0127 18.1336 36.8019 18.1336H45.8019V2.73444H36.1697C30.4744 2.73444 25.4006 3.49667 20.9485 5.0158C16.4963 6.53493 12.7083 8.72568 9.58965 11.5827C6.46571 14.4397 4.09087 17.8138 2.45452 21.7049C0.818175 25.596 0 29.9136 0 34.6522C0 39.3908 0.818175 43.7084 2.45452 47.5995C4.09087 51.4906 6.45508 54.8647 9.54183 57.7217C12.6339 60.5787 16.4166 62.7695 20.9006 64.2886C24.2212 65.4133 27.8764 66.1222 31.8663 66.4101H2.38546V84H321.686V83.9734H321.824C325.984 83.9734 329.724 82.9926 333.04 81.031C336.355 79.0695 339.006 76.4736 341.004 73.2328C343.001 69.992 344 66.4154 344 62.4923C344 57.4658 343.022 53.3722 341.067 50.2166L341.073 50.2113Z" fill="#007BBB"/>
</svg>
